<?xml version="1.0" encoding="UTF-8" standalone="no"?> <svg id="Layer_1" enable-background="new 0 0 510.743 510.743" height="512" viewBox="0 0 510.743 510.743" width="512" xmlns="http://www.w3.org/2000/svg"><g><g><path d="m255.371 76.736c197.564 166.294 163.495 137.622 193.94 163.234l37.808-44.926-231.748-195.044-152.95 128.735 9.659 11.477 143.291-120.607c198.656 167.201 159.806 134.506 210.612 177.257l-18.493 21.975-192.119-161.706-192.121 161.704-18.492-21.973 55.802-46.961-9.658-11.477-67.278 56.619 37.809 44.928z"/><path d="m70.842 255.163h15v156.95h-15z"/><path d="m424.901 255.163h15v156.95h-15z"/><path d="m262.871 378.917v-31.223l23.034-23.033c25.207 5.176 51.215-2.808 69.068-20.659 19.102-19.102 26.633-47.211 19.655-73.357l-1.119-4.193-4.193-1.119c-26.147-6.98-54.255.553-73.358 19.654-18.061 18.061-25.77 44.174-20.659 69.067l-12.427 12.427v-67.186c21.217-13.988 34.23-37.904 34.23-63.446 0-27.014-14.55-52.216-37.973-65.771l-3.757-2.174-3.757 2.174c-23.423 13.555-37.973 38.757-37.973 65.771 0 25.542 13.013 49.458 34.23 63.446v67.186l-12.427-12.427c5.111-24.893-2.598-51.007-20.659-69.067-19.102-19.102-47.212-26.633-73.358-19.654l-4.193 1.119-1.119 4.193c-6.978 26.146.554 54.256 19.655 73.357 17.842 17.842 43.842 25.838 69.067 20.659l23.034 23.033v31.223zm43.693-123.323c14.281-14.282 34.84-20.507 54.558-16.756 3.746 19.719-2.475 40.276-16.755 54.557-11.98 11.981-28.377 18.288-44.991 17.796l20.21-20.209-10.606-10.607-20.209 20.208c-.491-16.614 5.813-33.01 17.793-44.989zm-140.187 37.801c-14.281-14.28-20.501-34.839-16.755-54.557 19.718-3.744 40.277 2.475 54.558 16.756 11.979 11.979 18.284 28.376 17.794 44.989l-20.209-20.208-10.606 10.607 20.207 20.207c-16.615.487-33.011-5.816-44.989-17.794zm62.264-97.546c0-20.196 10.138-39.132 26.73-50.427 16.592 11.295 26.73 30.23 26.73 50.427 0 16.942-7.137 32.994-19.23 44.395v-28.58h-15v28.58c-12.093-11.401-19.23-27.453-19.23-44.395z"/><path d="m369.701 449.613h82.83v46.13h-394.32v-46.13h296.49v-15h-311.49v76.13h424.32v-76.13h-97.83z"/></g><g><path d="m247.939 178.349h15v15h-15z"/></g><g><path d="m325.937 257.62h15v15h-15z" transform="matrix(.707 -.707 .707 .707 -89.807 313.427)"/></g><g><path d="m169.806 257.619h15v15h-15z" transform="matrix(.707 -.707 .707 .707 -135.533 203.012)"/></g><g><path d="m308.612 413.319h-15v-15h15zm-45 0h-15v-15h15zm-45 0h-15v-15h15z"/></g><g><g><path d="m76.997 465.176h15v15h-15z"/></g><g><path d="m420.997 465.176h15v15h-15z"/></g></g></g></svg>