<?xml version="1.0" encoding="UTF-8" standalone="no"?> <svg xmlns="http://www.w3.org/2000/svg" width="77.356" height="41.14" viewBox="0 0 77.356 41.14">
  <g id="Group_1737" data-name="Group 1737" transform="translate(-1065.726 -111.282)">
    <g id="Group_1728" data-name="Group 1728">
      <g id="Group_1727" data-name="Group 1727">
        <g id="Group_1726" data-name="Group 1726">
          <g id="Group_1725" data-name="Group 1725">
            <path id="Path_332" data-name="Path 332" d="M1129.13,136.347c-3.721,0-5.688-1.854-7.27-3.345-1.474-1.388-2.637-2.484-5.1-2.484s-3.626,1.1-5.1,2.484c-1.58,1.49-3.547,3.345-7.266,3.345s-5.686-1.854-7.267-3.345c-1.472-1.388-2.634-2.484-5.1-2.484s-3.625,1.1-5.1,2.484c-1.581,1.49-3.547,3.345-7.266,3.345s-5.684-1.854-7.264-3.345c-1.472-1.388-2.634-2.484-5.095-2.484a1.58,1.58,0,1,1,0-3.16c3.717,0,5.684,1.854,7.264,3.345,1.471,1.388,2.633,2.484,5.095,2.484s3.625-1.1,5.1-2.484c1.58-1.491,3.547-3.345,7.266-3.345s5.687,1.854,7.268,3.345c1.472,1.388,2.635,2.484,5.1,2.484s3.625-1.1,5.1-2.484c1.579-1.491,3.546-3.345,7.265-3.345s5.688,1.854,7.269,3.344c1.473,1.389,2.637,2.485,5.1,2.485s3.629-1.1,5.1-2.485c1.581-1.49,3.549-3.344,7.269-3.344a1.58,1.58,0,1,1,0,3.16c-2.465,0-3.628,1.1-5.1,2.484C1134.82,134.492,1132.85,136.347,1129.13,136.347Z"/>
          </g>
        </g>
      </g>
    </g>
    <g id="Group_1732" data-name="Group 1732">
      <g id="Group_1731" data-name="Group 1731">
        <g id="Group_1730" data-name="Group 1730">
          <g id="Group_1729" data-name="Group 1729">
            <path id="Path_333" data-name="Path 333" d="M1129.13,120.272c-3.721,0-5.688-1.854-7.27-3.346-1.474-1.388-2.637-2.483-5.1-2.483s-3.626,1.1-5.1,2.483c-1.58,1.491-3.547,3.346-7.266,3.346s-5.686-1.854-7.267-3.346c-1.472-1.388-2.634-2.483-5.1-2.483s-3.625,1.1-5.1,2.483c-1.581,1.491-3.547,3.346-7.266,3.346s-5.684-1.854-7.264-3.346c-1.472-1.388-2.634-2.483-5.095-2.483a1.581,1.581,0,1,1,0-3.161c3.717,0,5.684,1.854,7.264,3.345,1.471,1.389,2.633,2.484,5.095,2.484s3.625-1.1,5.1-2.484c1.58-1.49,3.547-3.345,7.266-3.345s5.687,1.854,7.268,3.345c1.472,1.389,2.635,2.484,5.1,2.484s3.625-1.1,5.1-2.484c1.579-1.49,3.546-3.345,7.265-3.345s5.688,1.854,7.269,3.345c1.473,1.388,2.637,2.484,5.1,2.484s3.629-1.1,5.1-2.484c1.581-1.49,3.549-3.345,7.269-3.345a1.581,1.581,0,1,1,0,3.161c-2.465,0-3.628,1.1-5.1,2.483C1134.82,118.418,1132.85,120.272,1129.13,120.272Z"/>
          </g>
        </g>
      </g>
    </g>
    <g id="Group_1736" data-name="Group 1736">
      <g id="Group_1735" data-name="Group 1735">
        <g id="Group_1734" data-name="Group 1734">
          <g id="Group_1733" data-name="Group 1733">
            <path id="Path_334" data-name="Path 334" d="M1129.13,152.422c-3.721,0-5.688-1.855-7.27-3.346-1.474-1.387-2.637-2.483-5.1-2.483s-3.626,1.1-5.1,2.483c-1.58,1.49-3.547,3.346-7.266,3.346s-5.686-1.855-7.267-3.346c-1.472-1.387-2.634-2.483-5.1-2.483s-3.625,1.1-5.1,2.483c-1.581,1.49-3.547,3.346-7.266,3.346s-5.684-1.855-7.264-3.346c-1.472-1.387-2.634-2.483-5.095-2.483a1.58,1.58,0,1,1,0-3.161c3.717,0,5.684,1.855,7.264,3.346,1.471,1.388,2.633,2.483,5.095,2.483s3.625-1.1,5.1-2.483c1.58-1.49,3.547-3.346,7.266-3.346s5.687,1.855,7.268,3.346c1.472,1.388,2.635,2.483,5.1,2.483s3.625-1.1,5.1-2.483c1.579-1.49,3.546-3.346,7.265-3.346s5.688,1.855,7.269,3.344c1.473,1.389,2.637,2.485,5.1,2.485s3.629-1.1,5.1-2.484c1.581-1.489,3.549-3.345,7.269-3.345a1.58,1.58,0,1,1,0,3.161c-2.465,0-3.628,1.1-5.1,2.483C1134.82,150.567,1132.85,152.422,1129.13,152.422Z"/>
          </g>
        </g>
      </g>
    </g>
  </g>
</svg>
